PathFileType	4	(X/Y/Z)	C:\Users\Basilio\Documents\Thesis Gigler\squatting_fais\c3dfiles\039\SLS_pre_back4\markers_experimental.trc
DataRate	CameraRate	NumFrames	NumMarkers	Units	OrigDataRate	OrigDataStartFrame	OrigNumFrames
200.000000	200.000000	4	64	mm	200.000000	266	2133
Frame#	Time	FHD			LBHD			RBHD			C7			T10			CLAV			LSHO			LUUPA			LMUPA			LDUPA			LLEP			LMEP			LRAD			LUL			LRFIN			RSHO			RUPA1			RMUPA			RDUPA			RLEP			RMEP			RRAD			RUL			RUFIN			LASI			RASI			USACR			LSACR			RSACR			LTHI1			LTHI2			LTHI3			LTHI4			LLFC			LMFC			LTIB1			LTIB2			LTIB3			LTIB4			LLMAL			LMMAL			LHEE			LMT1			LMT2			LMT5			RTHI			RTHI2			RTHI3			RTHI4			RLFC			RMFC			RTIB1			RTIB2			RTIB3			RTIB4			RLMAL			RMMAL			RHEE			RMT1			RMT2			RMT5			*61			*62			*63			
		X1	Y1	Z1	X2	Y2	Z2	X3	Y3	Z3	X4	Y4	Z4	X5	Y5	Z5	X6	Y6	Z6	X7	Y7	Z7	X8	Y8	Z8	X9	Y9	Z9	X10	Y10	Z10	X11	Y11	Z11	X12	Y12	Z12	X13	Y13	Z13	X14	Y14	Z14	X15	Y15	Z15	X16	Y16	Z16	X17	Y17	Z17	X18	Y18	Z18	X19	Y19	Z19	X20	Y20	Z20	X21	Y21	Z21	X22	Y22	Z22	X23	Y23	Z23	X24	Y24	Z24	X25	Y25	Z25	X26	Y26	Z26	X27	Y27	Z27	X28	Y28	Z28	X29	Y29	Z29	X30	Y30	Z30	X31	Y31	Z31	X32	Y32	Z32	X33	Y33	Z33	X34	Y34	Z34	X35	Y35	Z35	X36	Y36	Z36	X37	Y37	Z37	X38	Y38	Z38	X39	Y39	Z39	X40	Y40	Z40	X41	Y41	Z41	X42	Y42	Z42	X43	Y43	Z43	X44	Y44	Z44	X45	Y45	Z45	X46	Y46	Z46	X47	Y47	Z47	X48	Y48	Z48	X49	Y49	Z49	X50	Y50	Z50	X51	Y51	Z51	X52	Y52	Z52	X53	Y53	Z53	X54	Y54	Z54	X55	Y55	Z55	X56	Y56	Z56	X57	Y57	Z57	X58	Y58	Z58	X59	Y59	Z59	X60	Y60	Z60	X61	Y61	Z61	X62	Y62	Z62	X63	Y63	Z63	X64	Y64	Z64	

267	1.33	-188.6473388671875	1783.396484375	-841.0723876953127	-342.5926208496094	1757.311645507813	-966.756042480469	-320.3024597167969	1762.315307617188	-827.0234375000002	-386.2535400390626	1586.166381835938	-914.039001464844	-375.1625061035157	1274.49609375	-927.1710205078127	-239.8962860107422	1524.50146484375	-908.5338134765627	-296.0621948242188	1568.084716796875	-1093.47705078125	-209.2420959472657	1378.674926757813	-1198.608276367188	-163.4020538330078	1397.695556640625	-1193.853149414063	-151.9802856445313	1341.308715820313	-1212.293334960938	-94.07371520996095	1307.449340820313	-1219.294921875	-120.5243530273438	1257.35595703125	-1161.082885742188	165.9912719726563	1204.741821289063	-1136.183959960938	152.6386871337891	1177.630126953125	-1205.539306640625	251.3509063720704	1193.943603515625	-1144.361328125	-292.1805114746094	1549.04296875	-724.0177001953126	-234.4689025878907	1346.545166015625	-628.9990234375001	-186.7375946044922	1357.134399414063	-630.8765258789064	-185.5867614746094	1299.017822265625	-616.4498901367189	-130.0989227294922	1268.579345703125	-609.3473510742189	-155.2951049804688	1221.651489257813	-670.4199218750001	132.8895874023438	1132.405883789063	-655.8576049804689	106.7250137329102	1106.005737304688	-588.5938110351564	216.0212402343751	1120.73193359375	-625.2111816406251	-194.3698730468751	1095.460693359375	-1034.561767578125	-196.7254180908204	1088.612182617188	-807.489196777344	-380.3088073730469	1149.687255859375	-921.9685058593752	-382.1068725585938	1116.74462890625	-949.742858886719	-385.0523376464845	1117.682250976563	-890.6164550781252	-285.9638366699219	820.651550292969	-1116.789672851563	-259.0403747558594	740.4848632812501	-1120.225463867188	-211.4288330078126	740.2369384765626	-1111.624389648438	-290.8550720214844	689.7623291015626	-1109.079345703125	-305.1815490722657	566.5062866210939	-1112.4990234375	-270.8458251953126	533.7158203125001	-1003.765258789063	-253.824447631836	416.4703063964845	-1102.604370117188	-324.4157714843751	377.7739562988282	-1139.186279296875	-282.3529663085938	372.1597900390626	-1127.198608398438	-277.8499145507813	290.8835144042969	-1093.747192382813	-341.5039062500001	122.5002899169922	-1126.314086914063	-317.6110839843751	122.2769851684571	-1043.924194335938	-404.4348144531251	77.44779205322267	-1086.031127929688	-172.9850463867188	56.62114715576173	-1069.78564453125	-180.091796875	51.4716148376465	-1112.687744140625	-227.1970367431641	30.86971664428712	-1162.20166015625	-249.5197753906251	821.1218872070315	-734.6993408203126	-209.7626342773438	767.3379516601564	-731.0005493164064	-177.978515625	771.2439575195315	-737.9193725585939	-236.9716339111329	686.3602294921876	-736.0830688476564	-274.5148620605469	548.1810302734376	-753.3275146484376	-238.7072296142579	529.1130371093751	-865.9004516601565	-259.6334838867188	332.2576293945313	-754.4671630859376	-351.4786682128907	277.3623046875001	-742.4895019531251	-306.9508056640626	263.2332153320313	-741.6323242187501	-294.6599121093751	211.6178588867188	-771.3320312500002	-370.6755371093751	124.6125259399414	-743.9136352539064	-339.6439819335938	136.3979949951172	-828.7877197265627	-439.6520996093751	100.495231628418	-793.5744628906252	-214.5273132324219	54.37266159057619	-804.4993896484377	-219.0704345703126	54.60146713256837	-758.5169677734376	-273.8896484375001	35.15744781494141	-706.9637451171876	nan	nan	nan	nan	nan	nan	nan	nan	nan	
268	1.335	-188.8536987304688	1783.355712890625	-840.969177246094	-342.9266052246094	1757.392333984375	-966.5517578125002	-320.6424255371094	1762.326293945313	-826.6947021484377	-386.941619873047	1586.138061523438	-913.7105102539065	-375.4818115234376	1274.42578125	-926.8994140625002	-240.4496765136719	1524.637084960938	-908.369812011719	-296.7150573730469	1568.301879882813	-1092.922485351563	-207.5892639160157	1380.869506835938	-1198.370361328125	-161.8984680175782	1400.010498046875	-1193.299682617188	-149.781478881836	1344.025512695313	-1212.103393554688	-91.2944793701172	1311.015502929688	-1218.916259765625	-116.9377822875977	1260.127075195313	-1160.4228515625	169.7944030761719	1211.167236328125	-1135.2568359375	157.4394836425782	1183.958374023438	-1204.693481445313	255.1007080078126	1201.662353515625	-1143.04931640625	-292.5836181640626	1549.414672851563	-724.1019897460939	-232.5841979980469	1348.392578125	-628.2923583984376	-185.0405731201172	1359.582153320313	-630.4697875976564	-183.0435791015625	1301.312377929688	-616.0533447265626	-126.9070663452149	1271.7021484375	-609.5537109375001	-151.4908752441407	1224.310424804688	-669.6622924804689	137.3977203369141	1138.170043945313	-655.6860351562501	111.6982727050782	1112.492553710938	-588.2617797851564	220.5214996337891	1128.063354492188	-625.3790283203126	-194.8081970214844	1095.436767578125	-1034.283081054688	-197.5298461914063	1088.255981445313	-807.9167480468752	-380.5890808105469	1149.578857421875	-921.7629394531252	-382.2994384765626	1116.662475585938	-949.526062011719	-386.259246826172	1118.378540039063	-890.5471191406252	-285.9809875488282	820.657897949219	-1116.616821289063	-259.1037902832032	740.5146484375001	-1120.029907226563	-211.4534149169922	740.2702636718751	-1111.44091796875	-290.9645996093751	689.7521972656251	-1108.925537109375	-305.1669921875001	566.5247802734376	-1112.367431640625	-270.7785644531251	533.7186889648439	-1003.567810058594	-253.7793731689454	416.4839782714845	-1102.547485351563	-324.4669799804688	377.8367004394532	-1139.129150390625	-282.4135437011719	372.1495666503907	-1127.092041015625	-277.7991943359376	290.9243469238282	-1093.684936523438	-341.5212707519532	122.4931716918946	-1126.288818359375	-317.5561828613282	122.2472457885742	-1043.896118164063	-404.4380187988282	77.44405364990236	-1085.986206054688	-172.8976440429688	56.54205322265626	-1069.8330078125	-179.837890625	51.87642288208009	-1113.07275390625	-227.1582183837891	30.89245986938477	-1162.239990234375	-249.6148681640626	821.0689697265627	-734.6215209960939	-209.880844116211	767.2789306640626	-730.8823242187501	-178.1347351074219	771.2124023437502	-737.7322387695314	-236.9968414306641	686.3681640625001	-736.0155639648439	-274.5817871093751	548.1705322265626	-753.2198486328126	-238.763656616211	529.1215820312501	-865.7707519531252	-259.6488342285157	332.2681579589844	-754.3815917968751	-351.4885559082032	277.3919982910157	-742.4003906250001	-306.9412841796876	263.1950073242188	-741.6124877929689	-294.6592712402344	211.5977478027344	-771.327087402344	-370.7110900878907	124.6197204589844	-743.9183959960939	-339.6228637695313	136.3699951171875	-828.762878417969	-439.6582336425782	100.4992218017578	-793.5952148437502	-214.5498352050782	54.38309860229494	-804.4839477539065	-219.0379180908204	54.60489654541017	-758.5021362304689	-273.9030761718751	35.17499542236329	-706.9707641601564	nan	nan	nan	nan	nan	nan	nan	nan	nan	
269	1.34	-189.1627502441407	1783.13330078125	-840.7592773437502	-343.4304504394532	1757.458374023438	-966.3978271484377	-321.0359497070313	1762.461547851563	-826.5607910156252	-387.4880981445314	1586.103881835938	-913.4600830078127	-375.9272766113282	1274.366821289063	-926.730895996094	-240.9468994140626	1524.632690429688	-908.3433227539065	-297.2631225585938	1568.553955078125	-1092.505981445313	-205.9447937011719	1382.657348632813	-1198.141723632813	-160.3911895751953	1402.630493164063	-1192.85400390625	-147.672607421875	1346.885620117188	-1211.817504882813	-88.80017089843751	1314.42822265625	-1218.492553710938	-114.0137634277344	1263.222778320313	-1160.4814453125	173.0208435058594	1217.217041015625	-1134.224609375	161.7877502441407	1190.61767578125	-1203.747436523438	258.9509582519532	1209.287841796875	-1141.447265625	-292.8844299316407	1549.77587890625	-724.0447998046876	-230.7220153808594	1349.960815429688	-628.0155029296876	-183.402328491211	1362.035034179688	-630.5272216796876	-180.6251525878907	1303.765747070313	-615.5833740234376	-124.0702743530274	1274.696411132813	-609.1711425781251	-148.2681579589844	1226.87890625	-669.0577392578126	141.686019897461	1144.5126953125	-655.6079711914064	116.6537780761719	1118.654541015625	-588.1008911132814	225.0538940429688	1135.3349609375	-625.5440063476564	-195.0364990234376	1095.550048828125	-1034.055053710938	-197.4120635986329	1088.676147460938	-807.0955200195315	-380.8889465332032	1149.534423828125	-921.581481933594	-382.5533142089844	1116.625854492188	-949.2995605468752	-386.7061462402345	1118.267456054688	-890.3677978515627	-286.1637268066407	820.693298339844	-1116.430297851563	-259.1716308593751	740.5550537109376	-1119.857788085938	-211.5424957275391	740.3325805664064	-1111.299560546875	-290.9675598144532	689.7751464843751	-1108.74267578125	-305.1442565917969	566.5590209960939	-1112.224365234375	-270.6337585449219	533.7355346679689	-1003.452270507813	-253.7061614990235	416.4320373535157	-1102.412353515625	-324.4137878417969	377.8613891601563	-1139.035278320313	-282.3327026367188	371.9908142089844	-1127.579711914063	-277.7713928222657	290.9265747070313	-1093.603881835938	-341.4970703125001	122.4933013916016	-1126.29541015625	-317.5539550781251	122.2280654907227	-1043.880981445313	-404.4203491210939	77.46994018554689	-1086.013061523438	-172.983642578125	56.66100311279298	-1069.782958984375	-180.0634155273438	51.48324203491212	-1112.690551757813	-227.1997985839844	30.90309524536134	-1162.218017578125	-249.7079772949219	821.0583496093752	-734.4851074218751	-210.0234069824219	767.3029785156251	-730.7340698242189	-178.3205871582032	771.320251464844	-737.5354614257814	-237.0810546875001	686.3735961914064	-735.8917846679689	-274.6179199218751	548.2027587890626	-753.0569458007814	-238.7825012207032	529.1745605468751	-865.6404418945315	-259.6675109863282	332.2784423828126	-754.2642211914064	-351.4863281250001	277.3657226562501	-742.3312988281251	-306.9766540527344	263.1825866699219	-741.4989013671876	-294.6368408203126	211.5915069580079	-771.295349121094	-370.7043457031251	124.6256637573242	-743.8804931640626	-339.5854492187501	136.4110107421875	-828.7273559570315	-439.6834716796876	100.5036087036133	-793.569519042969	-214.5899200439454	54.44116210937501	-804.4908447265627	-219.0680541992188	54.60205459594728	-758.4702758789064	-273.8764953613282	35.14115142822266	-706.9429931640626	nan	nan	nan	nan	nan	nan	nan	nan	nan	
270	1.345	-189.7155914306641	1782.866577148438	-840.5925292968752	-343.9730224609376	1757.546142578125	-966.1245117187502	-321.5994262695313	1762.3740234375	-826.2839965820315	-388.1066284179689	1585.961791992188	-913.1914062500002	-376.1975097656251	1274.254638671875	-926.5598144531252	-241.4219970703126	1524.631958007813	-908.1596679687502	-297.7993469238282	1568.790649414063	-1092.026123046875	-204.1586151123047	1384.686279296875	-1198.084106445313	-158.9726257324219	1405.476318359375	-1192.535888671875	-145.5620574951172	1349.598266601563	-1211.616943359375	-86.09270477294923	1317.924926757813	-1218.208129882813	-111.1095123291016	1266.088623046875	-1160.375122070313	176.4277496337891	1223.566040039063	-1133.215942382813	165.5818176269532	1197.621215820313	-1202.976196289063	262.7903747558594	1216.574462890625	-1140.121948242188	-293.3781127929688	1550.141357421875	-724.0031127929689	-228.777816772461	1351.822998046875	-627.7091064453126	-181.732894897461	1364.189575195313	-630.2980957031251	-178.2108306884766	1306.155883789063	-615.2792968750001	-121.1908645629883	1277.684326171875	-608.9332275390626	-145.3694763183594	1229.675903320313	-668.6780395507814	146.135971069336	1150.650146484375	-655.6614379882814	121.3296127319336	1124.4619140625	-587.9797363281251	229.5609283447266	1142.627075195313	-625.8693847656251	-195.4443817138672	1095.53955078125	-1033.733276367188	-198.0466003417969	1087.938232421875	-807.8956298828127	-381.1826477050782	1149.418701171875	-921.3631591796877	-382.8931884765626	1116.563842773438	-949.1174926757815	-386.9395141601564	1118.23046875	-890.1774902343752	-286.1888732910157	820.9447021484377	-1116.158935546875	-259.1898193359376	740.5512084960939	-1119.730224609375	-211.5492248535157	740.3377075195314	-1111.127075195313	-290.9888000488282	689.7684326171876	-1108.620727539063	-305.0985107421876	566.5345458984376	-1112.112670898438	-270.5177917480469	533.6657714843751	-1003.273315429688	-253.6204071044922	416.4541931152345	-1102.2734375	-324.3209533691407	377.8502197265626	-1138.953735351563	-282.2579650878907	371.9773254394532	-1127.518432617188	-277.6889343261719	290.8505859375001	-1093.579956054688	-341.5056762695313	122.5204544067383	-1126.274169921875	-317.5765075683594	122.2435913085938	-1043.871459960938	-404.4493713378907	77.50265502929689	-1085.965087890625	-172.9994201660157	56.61756134033205	-1069.78564453125	-180.0223846435547	51.48951339721681	-1112.68017578125	-227.1974182128907	30.9474220275879	-1162.222534179688	-249.8502655029297	821.0298461914065	-734.2841186523439	-210.1387481689454	767.2899169921876	-730.5164794921876	-178.5230865478516	771.3713989257815	-737.2761840820314	-237.1749877929688	686.3843383789064	-735.6799316406251	-275.3041381835938	547.9437255859376	-753.3263549804689	-238.8067169189454	529.1840820312501	-865.5025024414065	-259.7026367187501	332.2786865234376	-754.1392211914064	-351.5015563964844	277.3478393554688	-742.2261352539064	-307.0136718750001	263.2367248535157	-741.3740844726564	-294.6398010253907	211.5887451171876	-771.2300415039065	-370.7026367187501	124.5579223632813	-743.8438720703126	-339.5820312500001	136.4179992675782	-828.7210083007815	-439.6539611816407	100.4961471557617	-793.5931396484377	-214.6139831542969	54.45632171630861	-804.4735107421877	-219.0726165771485	54.6243133544922	-758.4499511718751	-273.9016723632813	35.18031692504884	-706.9626464843751	nan	nan	nan	nan	nan	nan	nan	nan	nan	
